<svg xmlns="http://www.w3.org/2000/svg" viewBox="0 0 24 24" width="16" height="16">
  <style>
    @keyframes spin {
      0% { transform: rotate(0deg); }
      100% { transform: rotate(360deg); }
    }
    .gear {
      transform-origin: center;
      animation: spin 6s infinite linear;
      fill: #2c5ead;
    }
  </style>
  <path class="gear" d="M19.4 13c0-.3.1-.6.1-.9s0-.6-.1-.9l2.1-1.6c.2-.2.2-.5 0-.7l-2-3.5c-.1-.2-.4-.3-.7-.2l-2.5 1c-.5-.4-1.1-.7-1.7-.9L14 3.7c-.1-.3-.3-.5-.6-.5h-4c-.3 0-.5.2-.6.5L8.4 6c-.6.2-1.2.6-1.7.9l-2.5-1c-.3-.1-.6 0-.7.2l-2 3.5c-.2.2-.1.5 0 .7l2.1 1.6c0 .3-.1.6-.1.9s0 .6.1.9l-2.1 1.6c-.2.2-.2.5 0 .7l2 3.5c.1.2.4.3.7.2l2.5-1c.5.4 1.1.7 1.7.9l.4 2.6c0 .3.3.5.6.5h4c.3 0 .5-.2.6-.5l.4-2.6c.6-.2 1.2-.6 1.7-.9l2.5 1c.3.1.6 0 .7-.2l2-3.5c.2-.2.1-.5 0-.7l-2.1-1.6zM12 15.5c-1.9 0-3.5-1.6-3.5-3.5s1.6-3.5 3.5-3.5 3.5 1.6 3.5 3.5-1.6 3.5-3.5 3.5z"/>
</svg>
